<svg width="640" height="600" viewBox="0 0 640 600" fill="none" xmlns="http://www.w3.org/2000/svg">
<path fill-rule="evenodd" clip-rule="evenodd" d="M180.9 596.599C228.6 596.599 273.3 577.799 306.7 543.699C310.5 539.799 310.5 533.499 306.5 529.599C302.6 525.799 296.3 525.799 292.4 529.799C262.8 560.099 223.2 576.699 180.9 576.699C94.9 576.699 25 506.699 25 420.799C25 336.199 91.2 267.799 175.7 264.999C180.9 264.999 357.8 264.899 414.4 264.799L370.4 341.099L364.3 350.899C361.3 355.499 357.3 360.599 356 361.599C355.9 361.699 355.8 361.799 355.7 361.799C354.4 362.799 353.1 363.799 351.7 364.599C341.6 370.599 329.3 370.799 318.9 365.299C314 362.699 308 364.599 305.4 369.499C302.8 374.399 304.7 380.399 309.6 382.999C326.2 391.699 345.7 391.299 361.8 381.799C364 380.499 366.1 379.099 368.1 377.499C372.8 373.899 378.8 365.299 381.1 361.699C381.1 361.599 381.2 361.599 381.2 361.499L387.5 351.399C387.6 351.299 387.6 351.199 387.7 351.099L440.4 259.699C441.7 257.499 442 254.999 441.5 252.699C441.4 252.399 441.4 252.099 441.3 251.799C441.3 251.699 441.3 251.699 441.2 251.599C441.1 251.399 441 251.199 441 250.899C441 250.799 440.9 250.699 440.9 250.599C440.8 250.399 440.7 250.199 440.7 250.099C440.6 249.999 440.6 249.799 440.5 249.699C440.4 249.599 440.3 249.399 440.2 249.299C440.1 249.199 440 248.999 439.9 248.899C439.8 248.799 439.7 248.699 439.7 248.599C439.6 248.399 439.4 248.299 439.3 248.099C439.2 247.999 439.2 247.999 439.1 247.899C438.9 247.699 438.7 247.499 438.5 247.299C438.5 247.299 438.5 247.299 438.4 247.199C436.6 245.599 434.3 244.699 431.8 244.699C429.3 244.699 177.4 244.799 175.3 244.899C129.6 246.399 86.8 265.299 54.9 298.199C22.6 331.299 5 374.799 5 420.699C5 517.699 83.9 596.599 180.9 596.599Z" fill="#D45016"/>
<path fill-rule="evenodd" clip-rule="evenodd" d="M491.501 257.6C490.101 262.9 493.201 268.4 498.601 269.8C567.201 288.1 615.101 350.2 615.101 420.8C615.101 506.8 545.201 576.7 459.201 576.7C409.901 576.7 363.001 553 333.601 513.3C332.701 512.1 329.401 507.2 328.601 505.9C326.701 502.7 324.601 499.1 324.601 499.1L207.801 296.9L297.101 296.8L308.701 297.2C314.201 297.5 320.601 298.4 322.101 299C322.201 299.1 322.401 299.1 322.501 299.2C324.001 299.8 325.501 300.5 326.901 301.3C337.101 307.1 343.501 317.6 344.001 329.3C344.201 334.8 348.901 339.1 354.301 338.9C359.801 338.7 364.101 334 363.901 328.5C363.201 309.8 353.001 293.1 336.701 283.9C334.501 282.6 332.201 281.5 329.801 280.6C324.301 278.3 313.901 277.5 309.601 277.2C309.501 277.2 309.401 277.2 309.301 277.2L297.401 276.8C297.301 276.8 297.201 276.8 297.101 276.8L191.801 277C189.601 277 187.601 277.7 186.001 278.9C181.201 281.7 179.601 287.7 182.401 292.5L307.301 509C307.301 509 309.501 512.8 311.501 516.1C312.701 518 316.301 523.4 317.501 525C333.501 546.7 354.601 564.7 378.501 577C403.201 589.8 431.101 596.5 459.101 596.5C556.101 596.5 635.001 517.6 635.001 420.6C635.001 341 581.001 271 503.701 250.4C502.801 250.2 502.001 250.1 501.101 250.1C496.701 250.2 492.701 253.1 491.501 257.6Z" fill="#6DA52E"/>
<path fill-rule="evenodd" clip-rule="evenodd" d="M163.799 233.7C169.099 232.2 172.199 226.7 170.699 221.4C159.199 180.4 164.699 137.5 186.199 100.7C207.199 64.6996 240.999 39.0996 281.199 28.4996C321.499 17.8996 363.499 23.6996 399.399 44.6996C472.599 87.2996 498.299 179 457.999 253.4C457.199 254.9 456.299 256.4 455.499 257.9C455.499 258 455.399 258 455.399 258.1L453.499 261.5L338.599 459.4L294.399 383.4L288.899 373.2C286.399 368.3 283.999 362.3 283.699 360.7C283.699 360.6 283.699 360.4 283.599 360.3C283.399 358.7 283.199 357.1 283.199 355.4C283.099 343.6 288.899 332.9 298.899 326.6C303.499 323.6 304.899 317.5 301.999 312.8C300.099 309.8 296.899 308.2 293.599 308.2C291.799 308.2 289.899 308.7 288.299 309.8C272.499 319.8 263.199 337 263.399 355.7C263.399 358.2 263.599 360.8 263.999 363.3C264.799 369.2 269.299 378.6 271.199 382.5C271.199 382.6 271.299 382.7 271.299 382.7L276.899 393.2C276.999 393.3 276.999 393.4 277.099 393.5L329.499 483.6C330.099 485 331.099 486.3 332.399 487.3C335.499 489.9 340.099 490.4 343.799 488.3C345.999 487.1 347.499 485.1 348.199 482.9L470.899 271.8C470.899 271.7 470.999 271.7 470.999 271.6L472.899 268.2C473.899 266.6 474.799 264.9 475.699 263.2C497.499 222.9 502.699 176.5 490.299 132.3C477.899 88.0996 449.299 50.8996 409.599 27.6996C382.299 11.7996 351.999 3.59961 321.199 3.59961C306.199 3.59961 291.099 5.49961 276.199 9.39961C230.699 21.1996 192.699 50.0996 168.999 90.6996C144.799 132.2 138.599 180.5 151.499 226.8C152.999 232.1 158.499 235.2 163.799 233.7Z" fill="#2C6DAC"/>
<path fill-rule="evenodd" clip-rule="evenodd" d="M180.9 596.599C228.6 596.599 273.3 577.799 306.7 543.699C310.5 539.799 310.5 533.499 306.5 529.599C302.6 525.799 296.3 525.799 292.4 529.799C262.8 560.099 223.2 576.699 180.9 576.699C94.9 576.699 25 506.699 25 420.799C25 336.199 91.2 267.799 175.7 264.999C180.9 264.999 357.8 264.899 414.4 264.799L370.4 341.099L364.3 350.899C361.3 355.499 357.3 360.599 356 361.599C355.9 361.699 355.8 361.799 355.7 361.799C354.4 362.799 353.1 363.799 351.7 364.599C341.6 370.599 329.3 370.799 318.9 365.299C314 362.699 308 364.599 305.4 369.499C302.8 374.399 304.7 380.399 309.6 382.999C326.2 391.699 345.7 391.299 361.8 381.799C364 380.499 366.1 379.099 368.1 377.499C372.8 373.899 378.8 365.299 381.1 361.699C381.1 361.599 381.2 361.599 381.2 361.499L387.5 351.399C387.6 351.299 387.6 351.199 387.7 351.099L440.4 259.699C441.7 257.499 442 254.999 441.5 252.699C441.4 252.399 441.4 252.099 441.3 251.799C441.3 251.699 441.3 251.699 441.2 251.599C441.1 251.399 441 251.199 441 250.899C441 250.799 440.9 250.699 440.9 250.599C440.8 250.399 440.7 250.199 440.7 250.099C440.6 249.999 440.6 249.799 440.5 249.699C440.4 249.599 440.3 249.399 440.2 249.299C440.1 249.199 440 248.999 439.9 248.899C439.8 248.799 439.7 248.699 439.7 248.599C439.6 248.399 439.4 248.299 439.3 248.099C439.2 247.999 439.2 247.999 439.1 247.899C438.9 247.699 438.7 247.499 438.5 247.299C438.5 247.299 438.5 247.299 438.4 247.199C436.6 245.599 434.3 244.699 431.8 244.699C429.3 244.699 177.4 244.799 175.3 244.899C129.6 246.399 86.8 265.299 54.9 298.199C22.6 331.299 5 374.799 5 420.699C5 517.699 83.9 596.599 180.9 596.599Z" stroke="#D45016" stroke-width="2" stroke-miterlimit="10"/>
<path fill-rule="evenodd" clip-rule="evenodd" d="M491.501 257.6C490.101 262.9 493.201 268.4 498.601 269.8C567.201 288.1 615.101 350.2 615.101 420.8C615.101 506.8 545.201 576.7 459.201 576.7C409.901 576.7 363.001 553 333.601 513.3C332.701 512.1 329.401 507.2 328.601 505.9C326.701 502.7 324.601 499.1 324.601 499.1L207.801 296.9L297.101 296.8L308.701 297.2C314.201 297.5 320.601 298.4 322.101 299C322.201 299.1 322.401 299.1 322.501 299.2C324.001 299.8 325.501 300.5 326.901 301.3C337.101 307.1 343.501 317.6 344.001 329.3C344.201 334.8 348.901 339.1 354.301 338.9C359.801 338.7 364.101 334 363.901 328.5C363.201 309.8 353.001 293.1 336.701 283.9C334.501 282.6 332.201 281.5 329.801 280.6C324.301 278.3 313.901 277.5 309.601 277.2C309.501 277.2 309.401 277.2 309.301 277.2L297.401 276.8C297.301 276.8 297.201 276.8 297.101 276.8L191.801 277C189.601 277 187.601 277.7 186.001 278.9C181.201 281.7 179.601 287.7 182.401 292.5L307.301 509C307.301 509 309.501 512.8 311.501 516.1C312.701 518 316.301 523.4 317.501 525C333.501 546.7 354.601 564.7 378.501 577C403.201 589.8 431.101 596.5 459.101 596.5C556.101 596.5 635.001 517.6 635.001 420.6C635.001 341 581.001 271 503.701 250.4C502.801 250.2 502.001 250.1 501.101 250.1C496.701 250.2 492.701 253.1 491.501 257.6Z" stroke="#6DA52E" stroke-width="2" stroke-miterlimit="10"/>
<path fill-rule="evenodd" clip-rule="evenodd" d="M163.799 233.7C169.099 232.2 172.199 226.7 170.699 221.4C159.199 180.4 164.699 137.5 186.199 100.7C207.199 64.6996 240.999 39.0996 281.199 28.4996C321.499 17.8996 363.499 23.6996 399.399 44.6996C472.599 87.2996 498.299 179 457.999 253.4C457.199 254.9 456.299 256.4 455.499 257.9C455.499 258 455.399 258 455.399 258.1L453.499 261.5L338.599 459.4L294.399 383.4L288.899 373.2C286.399 368.3 283.999 362.3 283.699 360.7C283.699 360.6 283.699 360.4 283.599 360.3C283.399 358.7 283.199 357.1 283.199 355.4C283.099 343.6 288.899 332.9 298.899 326.6C303.499 323.6 304.899 317.5 301.999 312.8C300.099 309.8 296.899 308.2 293.599 308.2C291.799 308.2 289.899 308.7 288.299 309.8C272.499 319.8 263.199 337 263.399 355.7C263.399 358.2 263.599 360.8 263.999 363.3C264.799 369.2 269.299 378.6 271.199 382.5C271.199 382.6 271.299 382.7 271.299 382.7L276.899 393.2C276.999 393.3 276.999 393.4 277.099 393.5L329.499 483.6C330.099 485 331.099 486.3 332.399 487.3C335.499 489.9 340.099 490.4 343.799 488.3C345.999 487.1 347.499 485.1 348.199 482.9L470.899 271.8C470.899 271.7 470.999 271.7 470.999 271.6L472.899 268.2C473.899 266.6 474.799 264.9 475.699 263.2C497.499 222.9 502.699 176.5 490.299 132.3C477.899 88.0996 449.299 50.8996 409.599 27.6996C382.299 11.7996 351.999 3.59961 321.199 3.59961C306.199 3.59961 291.099 5.49961 276.199 9.39961C230.699 21.1996 192.699 50.0996 168.999 90.6996C144.799 132.2 138.599 180.5 151.499 226.8C152.999 232.1 158.499 235.2 163.799 233.7Z" stroke="#2C6DAC" stroke-width="2" stroke-miterlimit="10"/>
</svg>
