<svg width="1108" height="839" viewBox="0 0 1108 839" fill="none" xmlns="http://www.w3.org/2000/svg">
<path fill-rule="evenodd" clip-rule="evenodd" d="M548.018 1.55918C545.469 4.10943 545.16 105.991 547.685 110.715C549.582 114.258 555.912 114.781 558.542 111.611C559.826 110.064 560.22 93.856 559.923 54.9829L559.506 0.521662L554.748 0.0543834C552.13 -0.202226 549.103 0.47414 548.018 1.55918ZM371.316 48.563C369.875 50.1565 368.696 52.4802 368.696 53.7268C368.696 54.9734 374.219 62.4896 380.968 70.4302C406.832 100.857 417.336 113.396 427.221 125.65C432.846 132.625 439.788 140.825 442.646 143.874C445.504 146.923 447.85 149.952 447.856 150.606C447.864 151.26 449.541 151.794 451.583 151.794C455.72 151.794 460.538 147.337 460.538 143.511C460.538 141.12 444.998 120.821 433.947 108.776C431.022 105.59 427.08 100.919 425.187 98.3974C423.293 95.8757 412.531 82.9803 401.274 69.7395C379.934 44.6394 376.843 42.4535 371.316 48.563ZM723.762 48.4378C722.028 49.9617 711.916 61.5455 701.29 74.1779C690.665 86.8104 677.166 102.848 671.293 109.818C649.293 135.921 645.879 140.629 646.877 143.478C647.863 146.293 653.583 151.694 655.645 151.759C657.627 151.821 737.649 56.7412 737.649 54.324C737.649 51.3793 732.016 45.6658 729.115 45.6658C727.906 45.6658 725.497 46.914 723.762 48.4378ZM533.497 147.304C519.26 149.339 492.551 159.773 479.695 168.323C460.779 180.902 441.075 204.595 430.211 227.827C427.97 232.618 424.121 242.746 421.655 250.332C417.283 263.791 417.245 264.206 420.099 267.36C424.064 271.743 430.133 271.574 431.926 267.031C440.071 246.394 450.752 223.922 456.598 215.128C467.423 198.839 486.715 181.504 502.276 174.083C519.919 165.669 533.447 162.653 553.75 162.6C581.561 162.531 600.496 168.697 622.345 184.94C641.012 198.817 656.12 220.64 670.363 254.298C677.465 271.081 679.313 272.949 685.604 269.693C691.129 266.836 691.175 265.513 686.266 250.886C677.714 225.4 662.583 200.243 645.485 183.08C616.309 153.795 576.673 141.132 533.497 147.304ZM287.23 184.36C281.523 193.073 280.505 192.548 350.485 217.044C367.904 223.141 386.328 229.615 391.427 231.429C398.196 233.838 401.401 234.288 403.303 233.098C406.541 231.071 407.57 223.656 405.037 220.602C403.995 219.347 395.571 215.889 386.315 212.918C377.06 209.945 364.499 205.598 358.403 203.259C345.828 198.434 292.549 180.306 290.94 180.306C290.36 180.306 288.69 182.131 287.23 184.36ZM778.82 192.834C694.405 222.051 699.457 219.723 702.828 227.865C704.719 232.43 705.392 232.794 710.585 232.073C715.795 231.349 769.008 213.265 795.446 203.233C801.543 200.921 808.391 198.457 810.665 197.761C818.929 195.228 821.574 192.982 821.574 188.488C821.574 183.978 819.04 180.232 816.111 180.405C815.196 180.458 798.415 186.053 778.82 192.834ZM318.575 336.204C299.079 340.934 282.175 353.989 274.761 370.043C271.909 376.219 271.311 380.401 271.311 394.147C271.311 413.523 273.257 418.9 284.703 431.15C293.531 440.597 300.045 445.111 320.399 455.889C367.641 480.905 373.136 484.733 378.409 496.316C385.002 510.798 379.326 529.879 365.885 538.406C350.519 548.154 331.387 548.067 310.612 538.152C296.435 531.387 283.192 515.192 278.194 498.506C276.264 492.064 271.343 489.949 269.495 494.768C268.986 496.094 269.186 509.46 269.94 524.468L271.311 551.756L279.228 551.303C283.583 551.054 292.652 552.269 299.38 554C306.108 555.733 318.934 557.959 327.883 558.947C341.593 560.463 346.014 560.351 355.99 558.241C379.525 553.262 396.421 541.151 405.463 522.778C410.174 513.206 410.657 510.89 410.65 497.933C410.642 485.348 410.098 482.57 406.09 474.64C397.476 457.602 387.151 449.941 342.965 427.799C325.042 418.818 317.281 413.952 311.077 407.809C295.428 392.314 295.06 372.812 310.141 358.138C318.065 350.425 326.888 347.647 340.573 348.553C363.584 350.075 377.995 360.964 389.5 385.519C397.179 401.915 400.365 403.059 400.365 389.425C400.365 380.244 397.219 339.955 396.43 339.052C396.217 338.807 392.887 339.448 389.032 340.481C382.86 342.132 380.021 341.854 365.256 338.156C346.878 333.551 332.062 332.932 318.575 336.204ZM443.728 340.991C441.72 346.225 443.873 348.91 451.051 350.117C454.963 350.774 459.827 352.193 461.86 353.27C469.846 357.496 470.037 359.214 470.066 426.936C470.096 494.952 470.861 503.285 478.62 520.239C480.786 524.972 486.333 532.618 490.946 537.23C504.98 551.26 523.317 558.095 551.38 559.76C600.39 562.666 631.905 541.78 639.579 501.3C640.391 497.014 641.056 464.547 641.056 429.151C641.056 369.343 641.265 364.403 644.012 359.274C646.901 353.885 651.355 351.374 662.137 349.057C665.868 348.255 666.511 347.403 666.096 343.799L665.6 339.499H631.555H597.51L597.022 343.719C596.495 348.277 597.359 348.788 608.594 350.566C616.673 351.845 619.851 354.26 622.828 361.39C626.209 369.484 626.298 483.053 622.936 498.92C618.908 517.932 610.618 529.098 594.017 537.874C558.528 556.633 514.834 540.216 503.941 504.03C502.057 497.77 501.63 483.862 501.674 430.259C501.706 392.571 502.374 362.507 503.232 360.251C505.268 354.891 511.104 351.358 520.044 350.074C527.847 348.952 531.417 345.716 529.722 341.298C528.836 338.989 524.147 338.707 486.666 338.707C451.496 338.707 444.461 339.081 443.728 340.991ZM693.925 342.811C692.646 347.908 694.328 349.101 704.742 350.484C710.299 351.221 713.718 352.733 716.416 355.645L720.23 359.762V448.003V536.245L716.448 540.327C714.367 542.573 709.558 545.207 705.759 546.182C694.96 548.95 694.643 549.153 695.18 552.937L695.686 556.508H773.277H850.868L855.879 531.956C863.709 493.585 863.68 493.94 859.019 493.94C855.66 493.94 854.148 495.904 848.471 507.638C839.9 525.35 830.707 534.715 817.002 539.697C808.081 542.939 803.785 543.4 780.582 543.604L754.275 543.836L753.867 451.509L753.458 359.18L757.252 355.385C759.339 353.297 763.799 351.14 767.162 350.592C777.39 348.922 780.677 347.007 780.115 343.047L779.611 339.499L737.289 339.078L694.967 338.655L693.925 342.811ZM255.182 621.317C224.576 627.359 205.596 648.28 205.596 675.978C205.596 704.806 218.31 718.773 266.849 743.267C306.943 763.499 315.392 771.662 315.376 790.149C315.367 800.389 312.445 806.774 304.624 813.644C295.838 821.36 289.654 823.864 277.414 824.658C245.719 826.715 225.013 812.303 211.339 778.665C209.875 775.061 207.861 772.725 206.22 772.725C203.734 772.725 203.598 774.925 204.538 799.867C205.102 814.794 206.242 827.826 207.072 828.827C207.902 829.826 210.907 830.823 213.751 831.04C216.595 831.255 224.652 832.922 231.657 834.742C249.361 839.342 277.349 840.398 291.733 837.01C306.978 833.421 319.84 826.088 329.832 815.292C341.71 802.458 345.456 792.059 344.592 774.309C344.169 765.606 342.948 758.96 341.14 755.516C333.4 740.775 317.467 729.383 277.949 710.332C256.352 699.919 242.637 689.712 237.879 680.505C234.15 673.293 234.77 659.622 239.217 650.956C245.12 639.456 253.204 635.708 272.103 635.708C285.526 635.708 288.162 636.207 296.579 640.341C308.513 646.204 317.851 655.782 324.466 668.95C328.008 676.002 330.567 679.268 332.546 679.268C335.029 679.268 335.442 677.919 335.442 669.821C335.442 657.026 332.182 628.135 330.535 626.331C329.731 625.45 326.831 625.656 323.207 626.853C317.95 628.59 315.261 628.346 301.386 624.878C281.499 619.909 267.704 618.846 255.182 621.317ZM639.951 620.975C639.056 622.109 635.34 630.877 631.69 640.46C628.04 650.043 623.362 661.805 621.294 666.596C616.74 677.149 599.222 722.253 582.535 766.389C564.235 814.791 559.786 822.225 547.833 824.376C544.674 824.944 541.198 826.117 540.108 826.982C537.333 829.185 537.641 833.975 540.634 835.123C542.012 835.652 555.107 836.085 569.734 836.085C590.353 836.085 596.736 835.595 598.135 833.91C600.748 830.759 598.606 826.696 593.773 825.637C578.397 822.264 577.518 820.736 582.283 805.672C584.296 799.312 589.181 786.447 593.14 777.081L600.336 760.053H637.092H673.847L682.787 785.294C694.701 818.93 694.507 822.703 680.77 824.547C672.897 825.603 668.157 830.112 671.141 833.707C672.873 835.795 678.583 836.08 711.342 835.716L749.525 835.293V830.717C749.525 826.576 748.803 825.955 741.958 824.217C728.392 820.772 724.748 815.502 713.466 783.021C709.531 771.695 703.789 756.013 700.706 748.172C697.623 740.332 690.417 721.086 684.692 705.404C678.966 689.723 669.432 664.062 663.502 648.38L652.72 619.868L647.148 619.391C643.936 619.117 640.888 619.789 639.951 620.975ZM1.38923 629.296C-1.91868 633.281 0.922113 637.878 7.35267 638.944C16.122 640.4 16.7412 640.721 19.8401 645.451C22.4877 649.492 22.7394 655.774 23.1923 729.093C23.5201 782.419 23.1226 810.269 21.9762 814.184C20.304 819.895 17.1149 821.894 3.19917 825.955C1.95296 826.318 1.3164 828.32 1.61568 830.927L2.11765 835.293L74.8632 835.705C114.873 835.931 148.163 835.562 148.842 834.883C150.16 833.565 155.575 807.511 157.399 793.713C158.429 785.934 158.281 785.397 155.118 785.397C152.681 785.397 149.808 788.384 144.831 796.089C136.417 809.117 132.646 812.7 122.444 817.365C115.307 820.627 111.683 821.03 84.855 821.55L55.1646 822.125V778.417V734.708H76.9977C107.695 734.708 112.015 737.059 120.879 758.584C121.811 760.845 123.768 762.429 125.63 762.429C128.691 762.429 128.811 761.231 129.221 726.573C129.603 694.513 129.372 690.611 127.042 689.718C123.391 688.316 120.966 690.814 118.387 698.633C115.325 707.915 106.506 716.34 97.4691 718.617C93.4613 719.627 82.304 720.452 72.6732 720.452H55.1646V679.886V639.321L84.0633 639.963C109.695 640.533 113.678 640.984 119.296 643.959C127.893 648.508 135.077 656.36 138.95 665.441C141.918 672.402 145.887 676.164 148.017 674.035C149.156 672.896 148.782 635.439 147.585 630.666L146.663 626.996H74.9804C14.2472 626.996 3.00598 627.348 1.38923 629.296ZM374.33 628.962C373.44 631.867 370.279 666.56 370.279 673.422C370.279 683.288 374.963 681.034 380.949 668.286C387.354 654.643 396.853 645.206 407.383 642.027C411.752 640.707 421.342 639.668 429.156 639.668H443.12V726.076C443.12 821.292 443.267 819.811 433.43 823.242C430.661 824.206 426.762 824.997 424.767 824.997C420.241 824.997 418.786 827.219 420.04 832.215L421.011 836.085L457.005 836.061C476.802 836.047 493.986 835.412 495.193 834.647C496.608 833.75 497.036 831.857 496.396 829.308C495.584 826.071 494.13 825.169 488.308 824.297C483.377 823.557 480.232 821.986 478.001 819.149C474.862 815.159 474.789 813.066 474.789 727.167V639.269L492.604 639.985C506.842 640.557 511.69 641.38 516.752 644.091C527.578 649.885 533.307 656.126 541.773 671.348C544.245 675.795 546.838 678.476 548.662 678.476C551.35 678.476 551.544 677.185 551.036 662.636C550.731 653.924 550.018 642.519 549.453 637.292L548.422 627.788L461.681 627.378C393.069 627.055 374.813 627.386 374.33 628.962ZM740.16 630.56C737.948 641.572 735.831 678.083 737.319 679.572C739.915 682.169 742.122 679.778 747.588 668.457C758.139 646.6 770.114 639.668 797.318 639.668H812.073V728.097V816.524L808.269 820.099C806.178 822.065 801.557 824.062 798 824.541C790.523 825.543 787.629 828.239 789.089 832.841C790.088 835.993 791.207 836.085 828.7 836.085C866.192 836.085 867.311 835.993 868.311 832.841C869.74 828.334 866.92 825.562 859.738 824.414C856.374 823.877 851.934 822.068 849.871 820.397L846.118 817.359L845.682 728.322L845.249 639.286L859.934 639.977C881.921 641.008 890.063 646.254 903.25 667.881C912.509 683.067 914.295 682.181 913.833 662.636C913.627 653.924 913.036 642.342 912.52 636.896L911.581 626.996H826.228H740.876L740.16 630.56ZM948.511 628.387C947.346 629.127 946.633 631.376 946.928 633.387C947.447 636.951 949.578 638.119 959.545 640.305C962.254 640.899 964.607 643.107 966.275 646.622C968.534 651.385 968.838 661.691 968.838 733.408C968.838 822.123 969.098 819.542 959.797 823.066C957.366 823.986 953.374 825.179 950.924 825.716C947.197 826.532 946.551 827.393 946.966 830.992L947.461 835.293L1022.87 835.705C1082.02 836.026 1098.6 835.686 1099.8 834.121C1101.12 832.393 1103.69 818.838 1107.48 793.581C1108.45 787.09 1108.31 786.746 1104.89 787.245C1102.48 787.595 1099.72 790.439 1096.67 795.693C1090.2 806.843 1083.71 813.125 1074.33 817.333C1066.89 820.671 1063.53 821.016 1033.37 821.537L1000.51 822.106V778.269V734.43L1025.45 734.965C1047.06 735.429 1051.02 735.917 1055.14 738.629C1062.1 743.215 1066.7 748.885 1069.61 756.489C1071.37 761.077 1073.13 763.221 1075.15 763.221C1077.94 763.221 1078.1 761.28 1078.1 726.788C1078.1 691.902 1077.97 690.356 1075.06 690.356C1072.96 690.356 1071.42 692.148 1070.12 696.102C1067.41 704.313 1054.98 716.578 1047.22 718.702C1043.74 719.654 1031.8 720.438 1020.7 720.443L1000.51 720.452V679.91V639.366L1029.41 639.92C1056.45 640.436 1058.8 640.725 1065.99 644.393C1075.04 649.011 1079.37 653.772 1084.57 664.857C1087.79 671.705 1089 672.921 1092.26 672.565L1096.14 672.14L1095.76 654.716C1095.55 645.133 1094.97 634.976 1094.48 632.144L1093.58 626.996L1022.11 627.02C982.792 627.034 949.675 627.649 948.511 628.387ZM648.126 692.732C653.939 708.414 660.427 725.893 662.544 731.574C664.659 737.255 666.392 742.423 666.392 743.058C666.392 743.693 652.853 744.212 636.305 744.212C619.758 744.212 606.219 743.889 606.219 743.495C606.219 743.101 606.897 741.14 607.727 739.139C615.524 720.318 634.722 669.593 634.722 667.814C634.722 665.673 636.405 662.959 637.195 663.824C637.395 664.043 642.313 677.051 648.126 692.732Z" fill="white"/>
</svg>
